# xmcd CD database file
#
# Track frame offsets:
#	150
#	13725
#	30064
#	49401
#	60667
#	71236
#	87713
#	105862
#	124028
#	138841
#	153140
#	170595
#	184782
#
# Disc length: 2522 seconds
#
# Revision: 0
# Processed by: cddbd v1.5.1PL0 Copyright (c) Steve Scherf et al.
# Submitted via: CDex 1.40Beta9
#
DISCID=a609d80d
DTITLE=The Wolverines - Making Tracks
DYEAR=2004
DGENRE=Country
TTITLE0=Living On The Right Side Of Town
TTITLE1=Simply Walk Away
TTITLE2=Out In The Bayo
TTITLE3=Want You To Be My Girl
TTITLE4=Don't Look Now
TTITLE5=That's The Price Of Love
TTITLE6=We Don't Change Our Ways
TTITLE7=Que Sera, Sera
TTITLE8=Truck Drivin' Man
TTITLE9=Can Somebody Help
TTITLE10=The Greatest Lie Ever Told
TTITLE11=Proud To Be Australian
TTITLE12=Australian National Anthem
EXTD=YEAR: 2004 ID3G: 2
EXTT0=
EXTT1=
EXTT2=
EXTT3=
EXTT4=
EXTT5=
EXTT6=
EXTT7=
EXTT8=
EXTT9=
EXTT10=
EXTT11=
EXTT12=
PLAYORDER=
